<svg xmlns="http://www.w3.org/2000/svg" xmlns:xlink="http://www.w3.org/1999/xlink" width="45.214" height="25.6965"><path fill="black" d="M6.18 6.22L1.05 6.22L1.05 19.17L4.31 19.17L4.31 14.45L5.75 14.45L8.44 19.17L12.32 19.17L8.95 13.91C10.64 13.25 11.54 12.06 11.54 10.34C11.54 7.94 9.95 6.22 6.18 6.22ZM6.33 8.81C7.53 8.81 8.18 9.31 8.18 10.36C8.18 11.58 7.38 11.99 6.23 11.99L4.31 11.99L4.31 8.81ZM22.05 6.22L13.12 6.22L13.12 19.17L22.22 19.17L22.22 16.52L16.37 16.52L16.37 13.84L21.66 13.84L21.66 11.29L16.37 11.29L16.37 8.86L22.05 8.86ZM34.32 6.22L30.89 6.22L28.47 16.59L25.99 6.22L22.53 6.22L26.42 19.17L30.49 19.17ZM42.01 19.17L45.45 19.17L41.31 6.22L37.22 6.22L33.10 19.17L36.41 19.17L36.93 17.28L41.50 17.28ZM40.79 14.73L37.63 14.73L39.22 8.64Z"/></svg>