<svg xmlns="http://www.w3.org/2000/svg" xmlns:xlink="http://www.w3.org/1999/xlink" width="36.889" height="25.6965"><path fill="black" d="M12.15 6.22L9.25 6.22L9.25 14.49L4.94 6.22L1.05 6.22L1.05 19.17L3.94 19.17L3.94 11.08L8.29 19.17L12.15 19.17ZM23.18 6.22L14.25 6.22L14.25 19.17L23.35 19.17L23.35 16.52L17.50 16.52L17.50 13.84L22.79 13.84L22.79 11.29L17.50 11.29L17.50 8.86L23.18 8.86ZM35.95 6.22L32.67 6.22L32.67 14.25C32.67 15.97 31.99 16.85 30.40 16.85C28.80 16.85 28.12 16.04 28.12 14.25L28.12 6.22L24.86 6.22L24.86 14.28C24.86 17.22 26.51 19.52 30.38 19.52C34.19 19.52 35.95 17.26 35.95 14.28Z"/></svg>