<svg id="Layer_1" data-name="Layer 1" xmlns="http://www.w3.org/2000/svg" viewBox="0 0 1000 1000"><defs><style>.cls-1{fill:#d1d3d4;}</style></defs><path class="cls-1" d="M338.5,458.58c3.45-.21,5.17-.21,8.61-.43a1.71,1.71,0,0,1,1.94,1.94v2.15a2.28,2.28,0,0,1-1.94,2.15c-5.38.22-8,.43-13.34.65a1.71,1.71,0,0,1-1.94-1.94V440.29a2.3,2.3,0,0,1,1.94-2.15,10.71,10.71,0,0,0,2.58-.21,1.7,1.7,0,0,1,1.94,1.93C338.29,447.18,338.29,451.05,338.5,458.58ZM366,464h-2.36A2.21,2.21,0,0,1,361.1,462c-3.45-9.47-5.17-13.77-8.4-23.24-.21-.86.22-1.94,1.08-1.94h3c1.51,0,1.94.43,2.37,1.94,2.37,6.45,3.44,9.9,5.81,16.35,2.37-6.45,3.44-9.9,5.59-16.57.43-1.5.86-1.93,2.37-1.93h2.58a1.29,1.29,0,0,1,1.08,1.93c-3.23,9.47-4.95,14-8.39,23.24C368,463.32,367.55,464,366,464Zm21.09,0a18.87,18.87,0,0,1-3.44-.21c-.65,0-.86-.65-.86-1.08,0-.21,0-.43.21-.43,3.23-4.73,4.74-7.1,7.75-11.83-2.8-4.74-4.09-6.89-6.46-11.41-.43-.43-.21-1.07.22-1.5a.77.77,0,0,1,.64-.22,18.19,18.19,0,0,1,3.45.22c1.5,0,1.93.43,2.79,1.93,1.51,2.8,2.37,4.09,3.66,6.89a47.08,47.08,0,0,0,3.66-6.24c.64-1.51,1.07-1.72,2.8-1.51a15.86,15.86,0,0,1,3.22.22c.65,0,1.08.86.86,1.72-2.79,4.3-3.87,6.45-6.88,10.76,3,5.16,4.73,7.53,7.74,12.69a1.07,1.07,0,0,1-.21,1.51.81.81,0,0,1-.65.21,20,20,0,0,1-3.65-.21c-1.73,0-2.16-.43-2.8-1.94-1.94-3.23-2.8-4.95-4.73-8-1.94,3-2.8,4.52-4.74,7.53C389.07,463.75,388.64,464,387.13,464Zm-97.68,52.71a10.24,10.24,0,0,1-2.58.22,2.28,2.28,0,0,1-2.8-1.51c-3.87-8.6-5.81-13.12-9.68-21.73a1.19,1.19,0,0,1,.64-1.72c.22,0,.43-.21.65-.21,1.07-.22,1.94-.22,3-.43a2,2,0,0,1,2.58,1.29h0c2.59,6,3.88,9.46,6.46,15.49,2.15-6.89,3.23-10.33,5.38-17,.43-1.51.86-1.94,2.36-2.15,1.08-.22,1.72-.22,2.8-.43.65-.22,1.08.21,1.29.86a1.32,1.32,0,0,1-.21.86c-3,9.68-4.74,14.42-8,24.1C291.17,516,290.74,516.67,289.45,516.67Zm22.38-2.58c-1.08,0-1.94-.43-1.94-1.72,0-9-.22-13.55-.22-22.81a2.29,2.29,0,0,1,1.94-2.15l15.06-1.07c1.08,0,1.94.43,1.94,1.72V490a2,2,0,0,1-1.94,2.15c-4.3.21-6.24.43-10.54.86v4.73c2.8-.21,4.52-.43,7.31-.64,1.08,0,1.94.43,1.94,1.72v1.72a2.29,2.29,0,0,1-1.94,2.15c-2.79.21-4.51.43-7.31.64v5.17c4.3-.22,6.24-.43,10.54-.86,1.08,0,1.94.43,1.94,1.72v1.94a2.29,2.29,0,0,1-1.94,2.15A86.65,86.65,0,0,0,311.83,514.09Zm32.05-2.15h-2.79a1.71,1.71,0,0,1-1.94-1.94V487.2a2.08,2.08,0,0,1,1.51-1.94h.21c3.44,0,5.17-.21,8.61-.21,5.59-.22,9.46,3,9.46,8a7.26,7.26,0,0,1-4.3,7.1c2.15,3.66,3.23,5.59,5.38,9.68a1.07,1.07,0,0,1-.21,1.51.82.82,0,0,1-.65.21h-3.23c-1.72,0-2.15-.21-2.79-1.72-1.73-3.23-2.59-5-4.31-8.18h-3v8.18A2,2,0,0,1,343.88,511.94Zm5.81-21.3a26.89,26.89,0,0,0-4.09.22v6a28,28,0,0,0,4.09-.21,2.91,2.91,0,0,0,2.8-3h0C352.49,491.72,351.41,490.64,349.69,490.64Zm21.73,20.66a2.06,2.06,0,0,1-1.93-1.51v-23a2.07,2.07,0,0,1,1.5-1.94h3a2.06,2.06,0,0,1,1.93,1.51v23a2.07,2.07,0,0,1-1.5,1.94h-3Zm23.24.86a2.08,2.08,0,0,1-1.94-1.51v-.21c0-7.54.22-11.19.22-18.72-2.37,0-3.44-.22-5.81-.22a2.07,2.07,0,0,1-1.94-1.5v-2.37a2.08,2.08,0,0,1,1.51-1.94h.21c7.32.22,11,.43,18.29.86a2.08,2.08,0,0,1,1.94,1.51v2.37a2.06,2.06,0,0,1-1.51,1.93h-.21c-2.37,0-3.44-.21-5.81-.21,0,7.53,0,11.18-.22,18.72a2,2,0,0,1-1.5,1.93h-.22A3.9,3.9,0,0,0,394.66,512.16Zm19.79.86c-1.07,0-1.72-.22-2.79-.22a1.24,1.24,0,0,1-1.29-1.29.79.79,0,0,1,.21-.64c3.87-8.83,6-13.34,9.9-22.17.43-1.5,1.07-1.72,2.58-1.72,1.08,0,1.72.22,2.58.22a2.55,2.55,0,0,1,2.58,2.15c3.45,9.68,5.17,14.2,8.61,23.88.43.43.22,1.08-.43,1.51a1.3,1.3,0,0,1-.86.21c-1.29,0-1.94-.21-3.23-.21a2.56,2.56,0,0,1-2.58-2.15l-1.08-3.45c-4.08-.43-6-.43-10.11-.86a21.75,21.75,0,0,1-1.5,3.23C416.61,513,416,513.23,414.45,513Zm12.27-9c-1.08-3.44-1.94-5.38-3-8.82-1.51,3.23-1.94,4.95-3.23,8.17,1.94.22,4.09.44,6.24.65ZM302.79,562.72c-1.08,0-1.72.21-2.58.21-1.72.22-2.15-.21-2.8-1.5-3.87-8.82-6-13.34-9.9-21.95a1.19,1.19,0,0,1,.65-1.72c.21,0,.43-.22.64-.22a16.76,16.76,0,0,1,3.23-.21,2,2,0,0,1,2.58,1.29v.22c2.58,6.24,4.09,9.46,6.89,15.7,2.36-6.88,3.44-10.33,5.59-17a2.56,2.56,0,0,1,2.58-2.15c1.08,0,1.72-.21,2.8-.21a1.63,1.63,0,0,1,1.51,1.07v.43c-3.23,9.69-5,14.42-8.18,24.1C304.73,562.07,304.08,562.72,302.79,562.72Zm23-1.94c-1.51,0-2.15-.43-2.15-1.93-.22-9-.22-13.56-.43-22.81a2.28,2.28,0,0,1,1.93-2.15,12,12,0,0,0,2.8-.22,1.71,1.71,0,0,1,1.94,1.94c.21,9,.21,13.55.43,22.8a2.3,2.3,0,0,1-1.94,2.16A10.71,10.71,0,0,0,325.81,560.78Zm21.09-1.29h-2.8a1.71,1.71,0,0,1-1.94-1.94V535a2.06,2.06,0,0,1,1.51-1.93h.21c3.45,0,5.38-.22,8.82-.22,5.81-.21,9.69,3,9.69,8a7.8,7.8,0,0,1-4.52,7.1c2.15,3.66,3.23,5.81,5.38,9.68.43.43.21,1.08-.22,1.51a.77.77,0,0,1-.64.22h-3.45c-1.72,0-2.15-.22-2.79-1.73-1.94-3.22-2.58-4.94-4.52-8.17h-3v8.17C349.05,558.85,348.4,559.49,346.9,559.49Zm6-21.3h-4.3v6h4.3a2.94,2.94,0,0,0,3-3c.22-1.5-1.07-2.79-3-3Zm26.25,21.09c-1.51,0-1.94-.65-1.94-1.94,0-7.53,0-11.19.22-18.72h-6a2.06,2.06,0,0,1-1.93-1.51v-2.36a2.07,2.07,0,0,1,1.5-1.94h.22c7.53.22,11.19.22,18.72.22a2,2,0,0,1,1.93,1.5v2.37a2.07,2.07,0,0,1-1.5,1.94h-6.24v18.71a2.07,2.07,0,0,1-1.51,1.94h-.21A16.76,16.76,0,0,0,379.17,559.28ZM412.73,561a10.24,10.24,0,0,1-2.58-.22,2.21,2.21,0,0,1-2.58-1.93c-3.44-9.69-5.16-14.21-8.61-23.67-.43-.86.22-1.94,1.51-1.72,1.08,0,1.94.21,3.23.21a2.23,2.23,0,0,1,2.58,1.94c2.37,6.88,3.44,10.11,5.81,16.78,2.58-6.24,3.87-9.68,6.45-16.14.43-1.29,1.08-1.72,2.58-1.72a12,12,0,0,1,2.8.22,1.24,1.24,0,0,1,1.29,1.29.79.79,0,0,1-.21.64c-3.66,9-5.6,13.56-9.68,22.38C414.88,560.78,414,561,412.73,561Zm40.45-48.41c1.72.21,2.8-.43,2.8-1.72a2.6,2.6,0,0,0-1.72-2.37c-.86-.65-4.09-2.8-5.17-3.66-2.79-1.94-4.3-4.52-4.08-7.31.21-4.52,4.08-7.53,9-7.1a11.77,11.77,0,0,1,6.89,3,2,2,0,0,1,0,2.58,9,9,0,0,0-1.08,1.51,1.61,1.61,0,0,1-2.58,0,5.72,5.72,0,0,0-3-1.51,2.17,2.17,0,0,0-2.58,1.72,2.62,2.62,0,0,0,1.72,2.37c.86.64,3.87,2.79,5.16,3.66,2.8,2.15,4.3,4.51,4.09,7.31-.22,4.95-4.3,7.53-9.47,7.1a14.53,14.53,0,0,1-8.39-3.87,1.76,1.76,0,0,1-.43-2.37c0-.21.22-.21.43-.43L446.3,510a1.76,1.76,0,0,1,2.58,0A6.39,6.39,0,0,0,453.18,512.59ZM439.63,558.2c1.72.21,2.79-.43,2.79-1.72a2.62,2.62,0,0,0-1.72-2.37,49.11,49.11,0,0,1-4.94-3.44,7.79,7.79,0,0,1-3.88-7.32c.22-4.51,3.88-7.53,9-7.1a10.39,10.39,0,0,1,6.45,2.8,2,2,0,0,1,0,2.58,9.38,9.38,0,0,0-1.07,1.51,1.75,1.75,0,0,1-2.58.21,5.7,5.7,0,0,0-3-1.5,2.18,2.18,0,0,0-2.58,1.72,2.62,2.62,0,0,0,1.72,2.37c1.08.64,4.09,2.79,5,3.44,2.8,2.15,4.09,4.52,4.09,7.31-.22,4.95-4.3,7.53-9.47,7.1a13,13,0,0,1-8.17-3.65,1.76,1.76,0,0,1-.43-2.37c0-.22.21-.22.43-.43l1.5-1.51a1.76,1.76,0,0,1,2.58,0A9.34,9.34,0,0,0,439.63,558.2Z"/><path class="cls-1" d="M439.84,643.83v7.53H298.27v-7.53c31.2-11.62,51-26,59.6-56.8H380C389.07,617.8,408.86,632.21,439.84,643.83Z"/><rect class="cls-1" x="363.03" y="348.85" width="12.26" height="59.38"/><path class="cls-1" d="M711.8,348.85a200.08,200.08,0,0,1,1.08,22.81V560.35l-221-211.5H387.34l320.8,302.51h16.57V371.44c0-7.53.43-15.06,1.08-22.8h-14Z"/></svg>